<?xml version="1.0" standalone="no"?>
<!DOCTYPE svg PUBLIC "-//W3C//DTD SVG 20010904//EN"
 "http://www.w3.org/TR/2001/REC-SVG-20010904/DTD/svg10.dtd">
<svg version="1.0" xmlns="http://www.w3.org/2000/svg"
 width="700.000000pt" height="700.000000pt" viewBox="0 0 700.000000 700.000000"
 preserveAspectRatio="xMidYMid meet">
<metadata>
Created by potrace 1.11, written by Peter Selinger 2001-2013
</metadata>
<g transform="translate(0.000000,700.000000) scale(0.100000,-0.100000)"
fill="#000000" stroke="none">
<path d="M3820 6985 c-14 -7 -63 -56 -109 -109 -102 -116 -150 -158 -217 -190
-92 -44 -129 -49 -374 -52 -208 -2 -243 -5 -305 -24 -161 -50 -291 -159 -364
-306 -61 -123 -61 -127 -61 -751 1 -515 3 -577 20 -663 23 -116 45 -181 98
-285 51 -102 124 -204 197 -278 l58 -57 0 -225 c0 -124 -2 -227 -4 -229 -2 -2
-89 -41 -194 -86 -104 -45 -208 -90 -230 -100 -22 -10 -74 -32 -115 -50 -41
-17 -103 -45 -138 -61 -35 -16 -65 -29 -68 -29 -3 0 -26 -10 -52 -21 -26 -12
-103 -46 -172 -76 -187 -82 -258 -119 -330 -175 -151 -118 -256 -264 -314
-438 -43 -130 -52 -205 -51 -457 1 -223 5 -241 61 -268 44 -21 83 -12 116 25
l28 30 1 220 c1 121 2 223 3 228 1 4 6 30 11 57 13 78 27 119 66 197 53 104
143 203 249 273 74 48 67 45 331 159 108 46 216 93 240 104 82 37 93 37 107 0
11 -32 118 -218 131 -228 3 -3 18 -21 33 -41 40 -54 166 -179 229 -227 141
-107 303 -186 463 -227 125 -32 144 -34 279 -42 246 -13 518 55 723 180 83 51
109 92 94 149 -21 76 -98 89 -191 33 -108 -66 -257 -123 -364 -140 -211 -34
-371 -23 -550 37 -227 76 -413 211 -545 397 -51 71 -130 208 -130 225 0 5 297
136 309 136 5 0 19 -25 31 -56 88 -215 297 -388 534 -439 91 -20 264 -12 351
15 205 65 362 198 456 384 21 43 39 85 39 92 0 8 2 14 5 14 4 0 121 -50 220
-95 28 -12 60 -25 73 -29 18 -6 21 -12 16 -29 -10 -34 -41 -93 -90 -171 -48
-77 -51 -92 -29 -141 31 -63 108 -74 159 -22 35 35 104 148 136 221 11 26 22
46 24 46 23 0 614 -264 660 -295 143 -95 246 -235 294 -400 28 -96 31 -130 31
-372 l1 -213 28 -30 c29 -33 70 -44 110 -29 61 23 68 55 66 309 -1 229 -5 273
-34 378 -54 195 -178 377 -340 499 -54 40 -166 102 -245 135 -213 88 -1032
442 -1039 449 -5 4 -9 107 -9 228 l0 220 58 58 c134 136 260 367 291 537 3 17
10 54 14 81 11 59 7 1166 -3 1210 -46 188 -118 351 -205 466 -111 145 -290
289 -440 352 -71 30 -96 32 -132 12z m113 -231 c201 -104 377 -323 436 -542
30 -115 33 -134 36 -305 l3 -158 -27 -10 c-42 -17 -181 -47 -246 -55 -139 -16
-292 -5 -422 32 -48 13 -95 26 -104 28 -75 19 -291 146 -364 214 -88 82 -132
92 -185 45 -58 -53 -48 -114 31 -183 196 -173 438 -289 688 -330 104 -17 352
-20 426 -6 17 4 55 12 85 18 30 6 60 12 66 14 6 1 20 5 31 8 19 6 19 -1 18
-261 -1 -148 -4 -277 -8 -288 -3 -11 -8 -37 -11 -58 -3 -21 -15 -66 -27 -100
-188 -564 -864 -799 -1354 -471 -165 110 -277 247 -348 425 -51 127 -61 199
-61 438 l-1 183 64 23 c109 40 232 139 247 200 16 64 -31 125 -95 125 -35 0
-49 -7 -95 -50 -47 -41 -104 -80 -119 -80 -11 0 0 499 12 540 26 92 91 174
182 228 72 43 125 50 352 52 254 1 315 11 447 76 85 42 106 58 200 155 58 59
106 108 108 109 2 0 17 -7 35 -16z m-913 -2654 c78 -40 213 -83 305 -97 28 -4
104 -8 170 -8 110 0 159 4 240 20 53 10 188 57 238 82 27 13 51 22 54 19 7 -7
5 -340 -2 -375 -50 -259 -264 -441 -520 -442 -121 0 -200 24 -297 88 -121 79
-211 213 -232 343 -9 62 -10 390 -1 390 3 0 23 -9 45 -20z"/>
<path d="M1122 1829 c-27 -18 -53 -64 -152 -264 l-119 -243 -53 -7 c-29 -4
-62 -9 -73 -10 -11 -2 -40 -7 -65 -10 -59 -7 -190 -26 -215 -31 -10 -2 -37 -6
-60 -9 -62 -9 -78 -15 -107 -43 -35 -32 -52 -83 -43 -130 6 -31 37 -66 203
-230 108 -106 196 -196 195 -200 -12 -56 -83 -498 -83 -521 0 -72 63 -131 140
-131 26 0 92 31 305 145 44 23 108 57 142 75 l63 32 102 -55 c361 -192 378
-200 421 -194 50 7 86 32 111 79 22 39 22 40 -34 358 -12 63 -23 131 -26 150
-3 19 -7 42 -10 51 -3 9 2 23 9 30 8 8 96 94 196 193 184 181 204 208 194 266
-13 79 -58 112 -179 129 -49 8 -96 15 -104 16 -8 2 -37 6 -65 9 -27 4 -63 9
-80 11 -73 11 -171 25 -177 25 -4 0 -64 111 -132 248 -104 205 -130 250 -156
265 -43 23 -107 22 -148 -4z m176 -466 c118 -239 107 -229 286 -253 45 -7 97
-14 116 -16 20 -3 68 -11 108 -17 l73 -13 -159 -156 c-129 -126 -161 -164
-166 -192 -4 -21 5 -101 24 -213 17 -98 33 -192 36 -209 l5 -32 -192 100
c-223 118 -231 119 -340 63 -131 -66 -284 -148 -296 -158 -19 -14 -17 2 18
202 17 97 31 187 32 201 3 64 -13 87 -169 240 -86 84 -154 153 -152 155 3 3
52 11 125 20 13 2 40 6 60 10 21 3 54 8 73 10 125 15 173 28 203 55 22 19 62
90 122 214 50 102 91 186 93 186 1 0 46 -89 100 -197z"/>
<path d="M3427 1832 c-22 -13 -59 -77 -153 -264 -71 -141 -130 -248 -138 -248
-7 0 -72 -9 -142 -19 -71 -11 -151 -23 -179 -26 -103 -14 -199 -35 -221 -50
-51 -33 -73 -105 -49 -161 10 -25 142 -161 380 -391 7 -6 11 -22 9 -35 -2 -13
-15 -86 -29 -163 -13 -77 -27 -158 -30 -180 -3 -22 -11 -64 -16 -93 -15 -77
-4 -125 37 -162 40 -34 72 -45 115 -36 16 3 133 60 259 127 l230 121 127 -68
c369 -193 378 -197 435 -175 37 14 77 60 84 98 5 28 -3 108 -21 204 -2 9 -6
32 -9 50 -3 19 -8 45 -11 59 -2 13 -7 42 -11 65 -3 22 -12 69 -19 105 l-14 65
198 195 c205 203 217 219 205 286 -7 39 -29 71 -64 93 -27 16 -90 27 -434 77
l-119 18 -119 242 c-100 205 -124 246 -152 263 -41 26 -110 27 -149 3z m298
-680 c20 -14 60 -27 101 -33 38 -5 96 -14 129 -19 57 -9 84 -13 180 -27 22 -3
41 -6 43 -8 2 -1 -67 -71 -153 -156 -113 -111 -158 -162 -165 -187 -7 -26 -1
-81 25 -235 40 -230 40 -233 23 -219 -7 5 -93 51 -192 102 -132 69 -188 93
-216 93 -28 0 -84 -24 -216 -93 -99 -51 -185 -97 -192 -103 -10 -8 -12 -1 -6
39 3 27 8 58 10 69 9 43 43 242 49 282 4 26 1 54 -8 75 -12 27 -209 232 -294
306 -13 11 -23 22 -23 24 0 3 21 8 48 12 91 13 118 16 177 26 33 5 78 12 100
15 80 11 110 18 133 33 15 9 62 92 124 215 l100 200 95 -194 c75 -155 102
-199 128 -217z"/>
<path d="M5745 1840 c-39 -16 -64 -57 -176 -285 -62 -126 -114 -231 -114 -232
0 -1 -27 -5 -60 -8 -33 -4 -62 -8 -65 -10 -3 -2 -30 -6 -60 -10 -30 -3 -82
-10 -115 -15 -33 -5 -80 -12 -105 -15 -124 -17 -159 -31 -190 -75 -27 -39 -32
-92 -11 -133 13 -25 349 -367 381 -387 4 -3 4 -27 0 -55 -5 -27 -11 -68 -15
-90 -8 -50 -42 -250 -50 -290 -24 -117 -8 -175 57 -215 66 -40 55 -44 471 174
l108 57 147 -77 c81 -42 189 -99 241 -125 96 -51 130 -58 178 -37 62 26 91 86
80 165 -6 39 -43 264 -53 313 -2 14 -10 58 -16 99 l-12 74 185 181 c102 99
191 189 198 198 7 10 15 37 17 61 7 77 -53 139 -146 152 -25 3 -56 8 -70 10
-14 3 -42 7 -62 10 -21 2 -53 7 -70 10 -18 3 -51 7 -73 10 -22 3 -75 10 -118
16 l-78 11 -119 243 c-101 205 -125 247 -154 264 -34 22 -94 27 -131 11z m257
-671 c26 -32 75 -46 223 -64 28 -3 59 -8 70 -11 11 -2 36 -6 55 -8 66 -9 125
-18 128 -21 2 -1 -66 -71 -151 -154 -153 -150 -182 -191 -172 -240 2 -10 6
-36 9 -57 4 -22 14 -79 22 -129 9 -49 18 -106 21 -125 2 -19 8 -50 13 -68 l8
-32 -146 77 c-220 115 -244 126 -283 126 -26 0 -87 -27 -228 -100 -105 -55
-191 -99 -191 -98 0 1 16 95 35 208 20 113 33 218 31 233 -8 42 -28 66 -181
216 -80 78 -144 142 -142 144 1 1 20 5 42 8 33 4 188 27 348 50 69 11 86 32
190 241 l100 200 93 -190 c51 -105 99 -197 106 -206z"/>
</g>
</svg>
